<svg width="52" height="52" viewBox="0 0 52 52" fill="none" xmlns="http://www.w3.org/2000/svg">
<path d="M7.51384 24.4285H16.2343L15.5465 26.9341H9.66325L9 29.3291H13.8761L13.2374 31.6382H8.36132L7.62438 34.2666H13.4831L12.7952 36.7722H4.0625L7.51384 24.4285Z" fill="#EA3232"/>
<path d="M30.1011 24.4285H38.4777L37.8144 26.9341H32.2874L31.5873 29.587H36.144L35.5422 31.8961H30.9731L29.6835 36.7722H26.8217L30.1011 24.4285Z" fill="#EA3232"/>
<path fill-rule="evenodd" clip-rule="evenodd" d="M48.2175 28.6045C48.0783 29.1449 47.8491 29.6648 47.5297 30.1643C47.2104 30.6638 46.8296 31.1101 46.3874 31.5031C45.9453 31.8961 45.4499 32.2073 44.9013 32.4366C44.3527 32.674 43.7795 32.7927 43.1818 32.7927H40.6762L39.6444 36.7722H36.7704L39.9884 24.4285H45.2575C45.847 24.4285 46.3547 24.5513 46.7805 24.7969C47.2145 25.0344 47.5584 25.3496 47.8122 25.7427C48.066 26.1439 48.2298 26.5902 48.3035 27.0815C48.3772 27.5809 48.3485 28.0886 48.2175 28.6045ZM45.3312 28.6045C45.4049 28.3097 45.4294 28.0599 45.4049 27.8552C45.3803 27.6423 45.323 27.4663 45.2329 27.3271C45.1428 27.1879 45.0241 27.0896 44.8767 27.0323C44.7293 26.9668 44.5778 26.9341 44.4223 26.9341H42.1869L41.3149 30.2994H43.6485C43.9842 30.2994 44.3117 30.1561 44.6311 29.8695C44.9504 29.583 45.1838 29.1613 45.3312 28.6045Z" fill="#EA3232"/>
<path d="M27.9272 24.4651L26.1708 30.5326C25.9088 31.466 25.6222 32.3176 25.311 33.0873C24.9999 33.857 24.6069 34.512 24.1319 35.0525C23.6488 35.5929 23.047 36.0146 22.3264 36.3175C21.6796 36.5878 20.8976 36.7351 19.9805 36.7597L19.8331 36.772H15.1658L15.8782 34.2418H20.2384C20.2384 34.2418 20.9508 34.2541 21.4544 34.0208C21.7492 33.8856 22.0071 33.6523 22.2282 33.3575C22.4493 33.0545 22.6458 32.6697 22.8177 32.203C22.9897 31.7362 23.1657 31.1794 23.3459 30.5326L25.1145 24.4651H27.9272Z" fill="#EA3232"/>
<path fill-rule="evenodd" clip-rule="evenodd" d="M30.7398 14.3077L28.5658 21.8613C28.5412 21.9719 28.4307 22.0578 28.3079 22.0578H26.1585C25.9742 22.0578 25.8391 21.8859 25.8883 21.7016L26.7726 18.6556C26.8217 18.4837 26.6866 18.3117 26.5024 18.3117H23.3458C23.2353 18.3117 23.1247 18.3854 23.0879 18.5082L19.3418 31.6258C19.3172 31.7486 19.2067 31.8223 19.0838 31.8223H16.9344C16.7502 31.8223 16.6151 31.6503 16.6642 31.4784L22.0685 12.5145C22.4738 11.1143 23.7511 10.1562 25.2005 10.1562H27.6078C29.7695 10.1562 31.3293 12.2197 30.7398 14.3077ZM27.1042 16.2237H23.9477C23.8248 16.2237 23.7143 16.2974 23.6897 16.4202L23.5792 16.8133C23.5178 16.9852 23.6529 17.1572 23.8371 17.1572H26.9937C27.1165 17.1572 27.227 17.0835 27.2516 16.9607L27.3744 16.5676C27.4236 16.3957 27.2884 16.2237 27.1042 16.2237ZM26.748 12.7724H25.704C25.1268 12.7724 24.6232 13.1531 24.4635 13.7058L24.1687 14.7253C24.1196 14.8972 24.2547 15.0692 24.4267 15.0692H27.5955C27.7183 15.0692 27.8289 14.9832 27.8534 14.8727L27.9885 14.4182C28.2219 13.5953 27.6078 12.7724 26.748 12.7724Z" fill="#135A95"/>
<path d="M19.0715 38.3564H20.7664L20.1032 40.0146C20.1032 40.0146 19.5136 41.8446 18.0275 42.2499L18.9855 39.9163C19.2188 39.8917 19.4276 39.6952 19.4645 39.4741C19.5136 39.2162 19.3417 39.0197 19.0837 39.0197C18.8381 39.0197 18.5924 39.2162 18.531 39.4741C18.4942 39.6338 18.5556 39.7689 18.6661 39.8549L17.8432 41.9797C17.3888 40.6041 17.9906 39.0443 17.9906 39.0443L18.2363 38.3564H19.0715Z" fill="#135A95"/>
</svg>
